<svg width="30" height="30" viewBox="0 0 30 30" fill="none" xmlns="http://www.w3.org/2000/svg">
<path d="M22.04 1.44801C22.04 0.744009 21.336 0.0400085 20.632 0.0400085H9.36796C8.66396 0.0400085 7.95996 0.744009 7.95996 1.44801V1.80001H22.04V1.44801Z" fill="#999999"/>
<path d="M25.5599 4.968C25.5599 4.264 24.8559 3.56 24.1519 3.56H5.84794C5.14394 3.56 4.43994 4.264 4.43994 4.968V5.32H25.5599V4.968Z" fill="#999999"/>
<path d="M11.48 23.976L20.28 18.52L11.48 13.064V23.976Z" fill="#999999"/>
<path d="M25.2079 7.08002H4.61592C2.67992 7.08002 0.919922 8.84002 0.919922 10.776V26.264C0.919922 28.2 2.67992 29.96 4.61592 29.96H25.3839C27.3199 29.96 29.0799 28.2 29.0799 26.088V10.776C29.0799 8.84002 27.3199 7.08002 25.2079 7.08002ZM27.1439 10.776V26.264C27.1439 27.32 26.2639 28.2 25.2084 28.2H4.61592C3.55992 28.2 2.67992 27.32 2.67992 26.088V10.776C2.67992 9.72002 3.55992 8.84002 4.61592 8.84002H25.3839C26.4399 8.84002 27.3199 9.72002 27.1439 10.776Z" fill="#999999"/>
</svg>
